<?xml version="1.0" encoding="UTF-8" standalone="no"?>
<svg
   width="2050.7498"
   height="550"
   viewBox="0 0 2050.7498 550"
   fill="none"
   version="1.1"
   id="svg4"
   xml:space="preserve"
   xmlns:xlink="http://www.w3.org/1999/xlink"
   xmlns="http://www.w3.org/2000/svg"
   xmlns:svg="http://www.w3.org/2000/svg"><defs
     id="defs4"><linearGradient
       id="linearGradient18"
       x1="209.81091"
       y1="94.866837"
       x2="261.18909"
       y2="108.63358"
       gradientUnits="userSpaceOnUse"><stop
         stop-color="#FFD32A"
         id="stop17" /><stop
         offset="1"
         stop-color="white"
         id="stop18"
         style="stop-color:#ffffff;stop-opacity:1;" /></linearGradient><linearGradient
       xlink:href="#linearGradient18"
       id="linearGradient220"
       gradientUnits="userSpaceOnUse"
       gradientTransform="translate(1060,-458)"
       x1="209.81091"
       y1="94.866837"
       x2="261.18909"
       y2="108.63358" /></defs><g
     id="layer5"
     transform="matrix(1.3580247,0,0,1.3580247,-1439.5062,621.97531)"><g
       id="g4"
       transform="matrix(0.96225664,0,0,0.96225664,1479.8608,-458.49857)"><path
         d="M 0,0 C 18.15,0 36.3,0 55,0 68.1,15.28 68.1,15.28 73.08,21.58 76.66,26.1 80.34,30.54 84,35 c 1.5,1.83 3,3.67 4.5,5.5 0.74,0.91 1.49,1.81 2.25,2.75 5.25,6.42 10.5,12.83 15.75,19.25 0.75,0.92 1.5,1.83 2.27,2.77 1.43,1.76 2.87,3.51 4.3,5.27 4.63,5.66 9.28,11.31 13.93,16.96 5.35,6.49 10.68,12.99 16,19.5 1.5,1.83 3,3.67 4.5,5.5 18,22 18,22 20.27,24.77 1.44,1.77 2.89,3.54 4.34,5.3 6.65,8.13 13.27,16.28 19.89,24.43 0.33,-55.11 0.66,-110.22 1,-167 21.45,0 42.9,0 65,0 0,92.73 0,185.46 0,281 -17.82,0 -35.64,0 -54,0 -10.16,-11.29 -10.16,-11.29 -14.31,-16.75 -3.77,-4.87 -7.65,-9.6 -11.69,-14.25 -4.45,-5.13 -8.7,-10.38 -12.86,-15.75 -3.26,-4.19 -6.66,-8.24 -10.14,-12.25 -4.45,-5.13 -8.7,-10.38 -12.86,-15.75 -3.26,-4.19 -6.66,-8.24 -10.14,-12.25 -4.45,-5.13 -8.7,-10.38 -12.86,-15.75 -3.26,-4.19 -6.66,-8.24 -10.14,-12.25 -4.45,-5.13 -8.7,-10.38 -12.86,-15.75 -3.73,-4.79 -7.66,-9.39 -11.64,-13.98 -4.14,-4.79 -8.07,-9.72 -11.94,-14.74 C 70.48,118.84 68.41,116.41 66,114 65.67,169.11 65.34,224.22 65,281 43.55,281 22.1,281 0,281 0,188.27 0,95.54 0,0 Z"
         fill="#ffffff"
         transform="translate(597,7)"
         id="path1-7" /><path
         d="m 0,0 c 69.96,0 139.92,0 212,0 0,17.49 0,34.98 0,53 -48.51,0 -97.02,0 -147,0 0,19.8 0,39.6 0,60 42.9,0 85.8,0 130,0 0,16.83 0,33.66 0,51 -42.9,0 -85.8,0 -130,0 0,21.12 0,42.24 0,64 50.16,0 100.32,0 152,0 0,17.49 0,34.98 0,53 -71.61,0 -143.22,0 -217,0 C 0,188.27 0,95.54 0,0 Z"
         fill="#ffffff"
         transform="translate(329,7)"
         id="path2-1" /><path
         d="M 0,0 C 0.87,0.75 1.73,1.49 2.62,2.26 7.52,6.55 11.91,10.94 16,16 c -1.33,1.36 -2.66,2.71 -4,4.06 -0.74,0.76 -1.49,1.51 -2.25,2.29 -2.8,2.7 -5.71,5.25 -8.65,7.8 -3.42,3.01 -6.73,6.15 -10.04,9.29 -5.6,5.28 -11.25,10.5 -17.06,15.56 -0.93,-0.8 -1.86,-1.61 -2.81,-2.44 -0.65,-0.55 -1.3,-1.1 -1.97,-1.66 -1.53,-1.31 -3.04,-2.64 -4.54,-3.99 C -55.97,28.94 -82.06,22.44 -109,24 c -22.46,1.93 -44.3,10.98 -59.63,27.9 -16.97,20.42 -21.96,45.01 -20.37,71.1 2.51,23 12.5,43.77 30.3,58.96 22.76,16.88 50.73,21.23 78.46,17.36 1.69,-0.3 3.37,-0.61 5.05,-0.94 0.36,-0.08 0.36,-0.08 2.18,-0.43 7.77,-1.76 14.46,-4.93 22.01,-7.95 0.33,-27.39 0.66,-54.78 1,-83 19.8,0 39.6,0 60,0 0.36,28.46 0.36,28.46 0.45,42.52 0.05,7.61 0.12,15.21 0.23,22.82 0.1,6.66 0.15,13.33 0.17,19.99 0.02,2.55 0.05,5.09 0.1,7.63 0.07,3.57 0.08,7.12 0.07,10.69 0.03,1.05 0.07,2.1 0.1,3.18 -0.05,4.3 -0.12,7.05 -3.05,10.33 -2.28,1.81 -4.57,3.35 -7.07,4.84 -0.73,0.46 -1.47,0.93 -2.22,1.41 -2,1.25 -4.03,2.4 -6.09,3.53 -0.77,0.42 -1.54,0.84 -2.33,1.28 -15.59,8.33 -32.17,13.82 -49.36,17.78 -1.07,0.27 -2.15,0.54 -3.26,0.82 -12.18,2.72 -24.33,2.67 -36.77,2.63 -3.7,-0.01 -7.39,0.02 -11.09,0.05 -39.95,0.12 -76.13,-13.42 -104.88,-41.5 -0.78,-0.71 -1.55,-1.43 -2.35,-2.16 -17.08,-16.11 -28.03,-37.63 -34.4,-59.96 -0.1,-0.35 -0.1,-0.35 -0.6,-2.1 -3.2,-11.79 -4,-23.44 -3.97,-35.58 0.01,-2.37 -0.02,-4.73 -0.04,-7.1 -0.14,-33.14 11.43,-65.16 33.36,-90.1 0.36,-0.43 0.36,-0.43 2.18,-2.58 5.39,-6.25 11.29,-11.4 17.82,-16.42 0.79,-0.64 1.59,-1.29 2.41,-1.95 C -146.24,-45.27 -52.41,-45.68 0,0 Z"
         fill="#ffffff"
         transform="translate(259,35)"
         id="path3-1" /><path
         d="m 0,0 c 80.52,0 161.04,0 244,0 0,17.49 0,34.98 0,53 -29.37,0 -58.74,0 -89,0 0,75.24 0,150.48 0,228 -21.78,0 -43.56,0 -66,0 C 89,205.76 89,130.52 89,53 59.63,53 30.26,53 0,53 0,35.51 0,18.02 0,0 Z"
         fill="#ffffff"
         transform="translate(889,7)"
         id="path4" /></g><path
       fill-rule="evenodd"
       clip-rule="evenodd"
       d="m 1168.4,-178 124.8,-280 h 64 l 125.2,280 h -68 l -24.854,-60 h -91.319 L 1349,-287.2 h 20.1651 l -44.3901,-107.16019 -0.014,0.0195 v -0.0194 h -26.598 l -80.172,107.26001 h 80.897 L 1186.7999,-178 Z"
       fill="url(#paint0_linear_529_2602)"
       id="path1-5-9"
       style="mix-blend-mode:normal;fill:url(#linearGradient220);stroke-width:1" /><path
       d="M 1060,-53.000001 1151.9794,-233.95399 1060,-234.01999 1293.2,-458 h 3.7658 l -78.9659,170.90001 81.0001,0.0109 z"
       fill="#ffd32a"
       id="path2-3-1"
       style="stroke-width:1" /></g></svg>
